<mxfile host="app.diagrams.net" modified="2023-05-24T11:07:31.878Z" agent="Mozilla/5.0 (Macintosh; Intel Mac OS X 10_15_7) AppleWebKit/537.36 (KHTML, like Gecko) Chrome/113.0.0.0 Safari/537.36" version="21.3.2" etag="A_R-bh_-mtSGpdlJZOut" type="github">
  <diagram name="第 1 页" id="9zKRRmTB5MXnqH2w-z5J">
    <mxGraphModel>
      <root>
        <mxCell id="0" />
        <mxCell id="1" parent="0" />
      </root>
    </mxGraphModel>
  </diagram>
</mxfile>
